<svg width="1921" height="59" viewBox="0 0 1921 59" fill="none" xmlns="http://www.w3.org/2000/svg">
<path d="M1653 22.0518H1644V18.0518H1619.05V22.0518H1610V13H1618V9H1623V0H1632.05V3H1641.05V9H1645.05V13H1653.05V16H1662.05V25.0518H1653V22.0518ZM1112.01 22.0518H1103.01V18.0518H1078.06V22.0518H1060V18.0518H1035.05V22.0518H1026.05V25.0518H1017V16H1026V13H1034V9H1061.05V13H1077.01V9H1082.01V0H1091.06V3H1100.06V9H1104.06V13H1112.06V16H1121.06V25.0518H1112.01V22.0518ZM268 22.0518H259V18.0518H234.051V22.0518H225V13H233V9H238V0H247.051V3H256.051V9H260.051V13H268.051V16H277.051V25.0518H268V22.0518ZM1775 22.0518H1757V17.0518H1748.05V22.0518H1739.05V26.0518H1730V22.0518H1721V17.0518H1716.05V18.0518H1707.05V21.0518H1698V17.0518H1689V8H1698.05V12H1707V9H1716V3H1725.05V13H1730.05V17H1739V13H1748V8H1757.05V13H1775.05V17H1784V13H1793V8H1802.05V13H1811V8H1820.05V13H1828V9H1837V8H1846.05V12H1855V8H1864.05V13H1873V9H1882.05V13H1891V9H1900V4H1909.05V9H1918.05V18.0518H1891.05V22.0518H1882V18.0518H1873.05V22.0518H1864V17.0518H1855.05V21.0518H1846V17.0518H1837.05V18.0518H1829.05V22.0518H1820V17.0518H1811.05V22.0518H1802V17.0518H1793.05V22.0518H1784.05V26.0518H1775V22.0518ZM1302 22.0518H1284V17.0518H1275.05V22.0518H1266.05V26.0518H1257V22.0518H1248V21.0518H1243V18.0518H1234.05V21.0518H1225V17.0518H1216.05V22.0518H1207V13H1216V8H1225.05V12H1234V9H1243V3H1252.05V13H1257.05V17H1266V13H1275V8H1284.05V13H1302.05V17H1311V13H1320V8H1329.05V13H1338.05V22.0518H1329V17.0518H1320.05V22.0518H1311.05V26.0518H1302V22.0518ZM390 22.0518H372V17.0518H363.051V22.0518H354.051V26.0518H345V22.0518H336V17.0518H331.051V18.0518H322.051V21.0518H313V17.0518H304V8H313.051V12H322V9H331V3H340.051V13H345.051V17H354V13H363V8H372.051V13H390.051V17H399V13H408V8H417.051V13H426V8H435.051V13H443V9H452V8H461.051V12H470V8H479.051V13H488V9H497.051V13H506V9H515V4H524.051V9H533.051V18.0518H506.051V22.0518H497V18.0518H488.051V22.0518H479V17.0518H470.051V21.0518H461V17.0518H452.051V18.0518H444.051V22.0518H435V17.0518H426.051V22.0518H417V17.0518H408.051V22.0518H399.051V26.0518H390V22.0518ZM1538 17.0518H1529.05V22.0518H1520V13H1529V8H1538.05V13H1556.05V22.0518H1538V17.0518ZM1502 17.0518H1497.05V18.0518H1488.05V21.0518H1479V17.0518H1462.05V21.0518H1453V18.0518H1444V17.0518H1439.05V22.0518H1430V13H1435V8H1444.05V9H1453.05V12H1462V8H1479.05V12H1488V9H1497V8H1506.05V13H1511.05V22.0518H1502V17.0518ZM1412 17.0518H1403.05V22.0518H1385V13H1403V8H1412.05V13H1421.05V22.0518H1412V17.0518ZM954 17.0518H945.051V22.0518H936V13H945V8H954.051V13H972.051V22.0518H954V17.0518ZM918 17.0518H913.051V18.0518H904.051V21.0518H895V17.0518H878.051V21.0518H869V18.0518H860V17.0518H855.051V22.0518H846V13H851V8H860.051V9H869.051V12H878V8H895.051V12H904V9H913V8H922.051V13H927.051V22.0518H918V17.0518ZM828 17.0518H819.051V22.0518H801V13H819V8H828.051V13H837.051V22.0518H828V17.0518ZM709 17.0518H700.051V22.0518H691V13H700V8H709.051V13H727.051V22.0518H709V17.0518ZM673 17.0518H668.051V18.0518H659.051V21.0518H650V17.0518H633.051V21.0518H624V18.0518H615V17.0518H610.051V22.0518H601V13H606V8H615.051V9H624.051V12H633V8H650.051V12H659V9H668V8H677.051V13H682.051V22.0518H673V17.0518ZM583 17.0518H574.051V22.0518H556V13H574V8H583.051V13H592.051V22.0518H583V17.0518ZM153 17.0518H144.051V22.0518H135V13H144V8H153.051V13H171.051V22.0518H153V17.0518ZM117 17.0518H112.051V18.0518H103.051V21.0518H94V17.0518H77.0508V21.0518H68V18.0518H59V17.0518H54.0508V22.0518H45V13H50V8H59.0508V9H68.0508V12H77V8H94.0508V12H103V9H112V8H121.051V13H126.051V22.0518H117V17.0518ZM27 17.0518H18.0508V22.0518H0V13H18V8H27.0508V13H36.0508V22.0518H27V17.0518ZM1169 18.0518H1160.06V21.0518H1151V12H1160V9H1169.05V13H1178.05V22.0518H1169V18.0518Z" fill="white"/>
<rect width="1920" height="43" transform="translate(1 16.001)" fill="url(#paint0_linear_114_142)"/>
<defs>
<linearGradient id="paint0_linear_114_142" x1="960" y1="-23.7241" x2="960" y2="89.5" gradientUnits="userSpaceOnUse">
<stop stop-color="white"/>
<stop offset="0.259615" stop-color="white"/>
<stop offset="1" stop-color="#7D7D7D"/>
</linearGradient>
</defs>
</svg>
