<svg width="1920" height="66" viewBox="0 0 1920 66" fill="none" xmlns="http://www.w3.org/2000/svg">
<path d="M1920 43V52.0518H1907.05V57.0518H1898V52.0518H1889V49H1880.05V52.0518H1875.05V57.0518H1866V56.0518H1857V53.0518H1848.05V57.0518H1831V53.0518H1822.05V56.0518H1813.05V57.0518H1804V52.0518H1799V49H1790.05V52.0518H1781.05V57.0518H1772V52.0518H1754V49H1700.05V52.0518H1692.05V56.0518H1687.05V65.0518H1678V62.0518H1669V56.0518H1665V52.0518H1657V49.0518H1648V49H1621.05V57.0518H1612V53.0518H1603.05V56.0518H1594.05V62.0518H1585V52.0518H1580V49H1571.05V52.0518H1562.05V57.0518H1553V52.0518H1535V49H1526.05V52.0518H1517.05V57.0518H1508V52.0518H1499.05V57.0518H1490V52.0518H1482.05V56.0518H1473.05V57.0518H1464V53.0518H1455.05V57.0518H1446V52.0518H1437.05V56.0518H1428V52.0518H1419.05V56.0518H1410.05V61.0518H1401V56.0518H1392V49H1369.05V52.0518H1351.05V57.0518H1342V52.0518H1333V49H1324.05V52.0518H1319.05V57.0518H1310V56.0518H1301V53.0518H1292.05V57.0518H1275V53.0518H1266.05V56.0518H1257.05V57.0518H1248V52.0518H1243V49H1234.05V52.0518H1225.05V57.0518H1216V52.0518H1198V49H1124.05V52.0518H1106.05V57.0518H1097V52.0518H1088V49H1079.05V52.0518H1074.05V57.0518H1065V56.0518H1056V53.0518H1047.05V57.0518H1030V53.0518H1021.05V56.0518H1012.05V57.0518H1003V52.0518H998V49H989.051V52.0518H980.051V57.0518H971V52.0518H953V49H908.052V49.0518H899.052V52.0518H891.052V56.0518H864V52.0518H848.044V56.0518H843.044V65.0518H833.993V62.0518H824.993V56.0518H820.993V52.0518H812.993V49.0518H803.993V49H774.046V53.0518H765.048V56.0518H755.997V52.0518H747V49H718.052V52.0518H709.051V57.0518H700V53.0518H691.051V56.0518H682.051V62.0518H673V52.0518H668V49H659.051V52.0518H650.051V57.0518H641V52.0518H623V49H614.051V52.0518H605.051V57.0518H596V52.0518H587V49H540.051V52.0518H522.051V57.0518H513V52.0518H504V49H495.051V52.0518H490.051V57.0518H481V56.0518H472V53.0518H463.051V57.0518H446V53.0518H437.051V56.0518H428.051V57.0518H419V52.0518H414V49H405.051V52.0518H396.051V57.0518H387V52.0518H369V49H315.051V52.0518H307.051V56.0518H302.051V65.0518H293V62.0518H284V56.0518H280V52.0518H272V49.0518H263V49H236.051V57.0518H227V53.0518H218.051V56.0518H209.051V62.0518H200V52.0518H195V49H186.051V52.0518H177.051V57.0518H168V52.0518H150V49H141.051V52.0518H132.051V57.0518H123V52.0518H114.051V57.0518H105V52.0518H97.0508V56.0518H88.0508V57.0518H79V53.0518H70.0508V57.0518H61V52.0518H52.0508V56.0518H43V52.0518H34.0508V56.0518H25.0508V61.0518H16V56.0518H7V49H0V0H1920V43Z" fill="url(#paint0_linear_12_63925)"/>
<defs>
<linearGradient id="paint0_linear_12_63925" x1="963" y1="-16.5" x2="962.525" y2="65.0518" gradientUnits="userSpaceOnUse">
<stop stop-color="#BBBBBB"/>
<stop offset="1" stop-color="white"/>
</linearGradient>
</defs>
</svg>
