<svg width="226" height="77" viewBox="0 0 226 77" fill="none" xmlns="http://www.w3.org/2000/svg">
<path d="M176.688 21H182.051V27.583H216V38H225.051V55.0518H216V65.417H182.051V73.0518H176.688V77H48.3115V73.0518H40V65.417H9V56.0518H0V38H9V27.583H40V21H48.3115V16H176.688V21ZM210.768 63.875H171.459V75.459H53.5381V75.46H171.462V63.877H210.772V29.124H210.768V63.875ZM14.2275 63.877H53.5332V63.875H14.2275V63.877ZM171.459 29.123H171.462V17.54H171.459V29.123Z" fill="white"/>
<path d="M117 9V18.0519H126.051V9H117Z" fill="#D9D9D9"/>
<path d="M99.9997 9V18.0519H109.051V9H99.9997Z" fill="#D9D9D9"/>
<path d="M108 0V9.05194H117.051V0H108Z" fill="#D9D9D9"/>
<path d="M99 9V18.5519H127.5V9H118.5V0H108V9H99Z" fill="#D9D9D9"/>
</svg>
